<?xml version="1.0" encoding="UTF-8" standalone="no"?>
<!-- Created with Inkscape (http://www.inkscape.org/) -->

<svg
   width="512mm"
   height="512mm"
   viewBox="0 0 512 512"
   version="1.1"
   id="svg1"
   xml:space="preserve"
   inkscape:export-filename="logo.svg"
   inkscape:export-xdpi="96"
   inkscape:export-ydpi="96"
   xmlns:inkscape="http://www.inkscape.org/namespaces/inkscape"
   xmlns:sodipodi="http://sodipodi.sourceforge.net/DTD/sodipodi-0.dtd"
   xmlns:xlink="http://www.w3.org/1999/xlink"
   xmlns="http://www.w3.org/2000/svg"
   xmlns:svg="http://www.w3.org/2000/svg"><sodipodi:namedview
     id="namedview1"
     pagecolor="#f0f8ff"
     bordercolor="#000000"
     borderopacity="0.25"
     inkscape:showpageshadow="2"
     inkscape:pageopacity="0.0"
     inkscape:pagecheckerboard="0"
     inkscape:deskcolor="#d1d1d1"
     inkscape:document-units="mm"
     showguides="true"
     inkscape:export-bgcolor="#f0f8ffff" /><defs
     id="defs1"><linearGradient
       id="linearGradient212"
       inkscape:collect="always"><stop
         style="stop-color:#ab843e;stop-opacity:1;"
         offset="0"
         id="stop210" /><stop
         style="stop-color:#ab843e;stop-opacity:1;"
         offset="0.60896677"
         id="stop211" /><stop
         style="stop-color:#f7da79;stop-opacity:1;"
         offset="1"
         id="stop212" /></linearGradient><linearGradient
       id="linearGradient208"
       inkscape:collect="always"><stop
         style="stop-color:#07233c;stop-opacity:1;"
         offset="0"
         id="stop204" /><stop
         style="stop-color:#1f3d57;stop-opacity:1;"
         offset="0.60896677"
         id="stop205" /><stop
         style="stop-color:#4585ae;stop-opacity:1;"
         offset="1"
         id="stop206" /></linearGradient><inkscape:path-effect
       effect="fillet_chamfer"
       id="path-effect202"
       is_visible="true"
       lpeversion="1"
       nodesatellites_param="F,0,0,1,0,0,0,1 @ F,0,0,1,0,0,0,1 @ F,0,0,1,0,6.8435996,0,1 @ F,0,0,1,0,5.2636764,0,1 @ F,0,0,1,0,2.0715596,0,1 @ F,0,0,1,0,2.7446355,0,1 @ F,0,0,1,0,0,0,1 @ F,0,0,1,0,0,0,1 @ F,0,0,1,0,6.57309,0,1 @ F,0,0,1,0,3.7806856,0,1 @ F,0,0,1,0,0,0,1 @ F,0,0,1,0,1.538957,0,1 @ F,0,0,1,0,2.3431383,0,1"
       radius="0"
       unit="px"
       method="auto"
       mode="F"
       chamfer_steps="1"
       flexible="false"
       use_knot_distance="true"
       apply_no_radius="true"
       apply_with_radius="true"
       only_selected="false"
       hide_knots="false" /><inkscape:path-effect
       effect="fillet_chamfer"
       id="path-effect200"
       is_visible="true"
       lpeversion="1"
       nodesatellites_param="F,0,0,1,0,0,0,1 @ F,0,0,1,0,0,0,1 @ F,0,0,1,0,6.8435996,0,1 @ F,0,0,1,0,5.2636764,0,1 @ F,0,0,1,0,2.0715596,0,1 @ F,0,0,1,0,2.7446355,0,1 @ F,0,0,1,0,0,0,1 @ F,0,0,1,0,0,0,1 @ F,0,0,1,0,6.57309,0,1 @ F,0,0,1,0,3.7806856,0,1 @ F,0,0,1,0,0,0,1 @ F,0,0,1,0,1.538957,0,1 @ F,0,0,1,0,2.3431383,0,1"
       radius="0"
       unit="px"
       method="auto"
       mode="F"
       chamfer_steps="1"
       flexible="false"
       use_knot_distance="true"
       apply_no_radius="true"
       apply_with_radius="true"
       only_selected="false"
       hide_knots="false" /><inkscape:path-effect
       effect="fillet_chamfer"
       id="path-effect199"
       is_visible="true"
       lpeversion="1"
       nodesatellites_param="F,0,0,1,0,0,0,1 @ F,0,0,1,0,0,0,1 @ F,0,0,1,0,2.8032683,0,1 @ F,0,0,1,0,0,0,1 @ F,0,0,1,0,0,0,1 @ F,0,1,1,0,6.5683419,0,1"
       radius="0"
       unit="px"
       method="auto"
       mode="F"
       chamfer_steps="1"
       flexible="false"
       use_knot_distance="true"
       apply_no_radius="true"
       apply_with_radius="true"
       only_selected="false"
       hide_knots="false" /><linearGradient
       id="linearGradient157"
       inkscape:collect="always"><stop
         style="stop-color:#07233c;stop-opacity:1;"
         offset="0"
         id="stop157" /><stop
         style="stop-color:#1f3d57;stop-opacity:1;"
         offset="0.114905"
         id="stop156" /><stop
         style="stop-color:#4585ae;stop-opacity:1;"
         offset="0.22981"
         id="stop155" /><stop
         style="stop-color:#385872;stop-opacity:1;"
         offset="0.49049884"
         id="stop154" /><stop
         style="stop-color:#07233c;stop-opacity:1;"
         offset="1"
         id="stop153" /></linearGradient><linearGradient
       id="linearGradient146"
       inkscape:collect="always"><stop
         style="stop-color:#ab843e;stop-opacity:1;"
         offset="0"
         id="stop147" /><stop
         style="stop-color:#ab843e;stop-opacity:1;"
         offset="0.44596198"
         id="stop151" /><stop
         style="stop-color:#f7da79;stop-opacity:1;"
         offset="0.49524939"
         id="stop149" /><stop
         style="stop-color:#ab843e;stop-opacity:1;"
         offset="0.65261286"
         id="stop150" /><stop
         style="stop-color:#ab843e;stop-opacity:1;"
         offset="0.89073634"
         id="stop148" /></linearGradient><linearGradient
       id="linearGradient131"
       inkscape:collect="always"><stop
         style="stop-color:#07233c;stop-opacity:1;"
         offset="0"
         id="stop128" /><stop
         style="stop-color:#385872;stop-opacity:1;"
         offset="0.3915098"
         id="stop129" /><stop
         style="stop-color:#4585ae;stop-opacity:1;"
         offset="0.47862229"
         id="stop130" /><stop
         style="stop-color:#1f3e57;stop-opacity:1;"
         offset="0.60281676"
         id="stop146" /><stop
         style="stop-color:#07233c;stop-opacity:1;"
         offset="1"
         id="stop131" /></linearGradient><linearGradient
       id="linearGradient93"
       inkscape:collect="always"><stop
         style="stop-color:#ab843e;stop-opacity:1;"
         offset="0.45368177"
         id="stop93" /><stop
         style="stop-color:#f7da79;stop-opacity:1;"
         offset="0.6888361"
         id="stop94" /></linearGradient><linearGradient
       id="linearGradient58"
       inkscape:collect="always"><stop
         style="stop-color:#07233c;stop-opacity:1;"
         offset="0"
         id="stop58" /><stop
         style="stop-color:#385872;stop-opacity:1;"
         offset="0.50950116"
         id="stop60" /><stop
         style="stop-color:#4585ae;stop-opacity:1;"
         offset="0.77019"
         id="stop61" /><stop
         style="stop-color:#1f3d57;stop-opacity:1;"
         offset="0.885095"
         id="stop152" /><stop
         style="stop-color:#07233c;stop-opacity:1;"
         offset="1"
         id="stop59" /></linearGradient><linearGradient
       inkscape:collect="always"
       xlink:href="#linearGradient58"
       id="linearGradient59"
       x1="-191.38658"
       y1="122.63558"
       x2="-164.55617"
       y2="122.63558"
       gradientUnits="userSpaceOnUse"
       gradientTransform="matrix(3.5295494,0,0,3.5295494,738.18789,-226.12982)" /><linearGradient
       inkscape:collect="always"
       xlink:href="#linearGradient58"
       id="linearGradient64"
       x1="-191.38658"
       y1="122.63558"
       x2="-164.55617"
       y2="122.63558"
       gradientUnits="userSpaceOnUse"
       gradientTransform="matrix(-3.5295494,0,0,3.5295494,-228.22895,-226.12982)" /><linearGradient
       inkscape:collect="always"
       xlink:href="#linearGradient58"
       id="linearGradient66"
       x1="-168.3644"
       y1="118.80929"
       x2="-154.27798"
       y2="118.80929"
       gradientUnits="userSpaceOnUse"
       gradientTransform="matrix(3.5295494,0,0,3.5295494,738.18789,-226.12982)" /><linearGradient
       inkscape:collect="always"
       xlink:href="#linearGradient157"
       id="linearGradient67"
       x1="-119.52944"
       y1="118.80929"
       x2="-105.44303"
       y2="118.80929"
       gradientUnits="userSpaceOnUse"
       gradientTransform="matrix(3.5295494,0,0,3.5295494,738.18789,-226.12982)" /><linearGradient
       inkscape:collect="always"
       xlink:href="#linearGradient93"
       id="linearGradient94"
       x1="-136.62732"
       y1="137.136"
       x2="-136.9489"
       y2="84.751167"
       gradientUnits="userSpaceOnUse" /><linearGradient
       inkscape:collect="always"
       xlink:href="#linearGradient131"
       id="linearGradient128"
       x1="-188.02779"
       y1="162.52544"
       x2="-80.418892"
       y2="162.52544"
       gradientUnits="userSpaceOnUse"
       gradientTransform="matrix(3.5295494,0,0,3.5295494,738.18789,-226.12982)" /><linearGradient
       inkscape:collect="always"
       xlink:href="#linearGradient146"
       id="linearGradient148"
       x1="-194.64822"
       y1="167.77394"
       x2="-78.580933"
       y2="167.77394"
       gradientUnits="userSpaceOnUse"
       gradientTransform="matrix(3.5295494,0,0,3.5295494,738.18789,-226.12982)" /><linearGradient
       inkscape:collect="always"
       xlink:href="#linearGradient208"
       id="linearGradient204"
       x1="-162.04274"
       y1="152.68774"
       x2="-162.07605"
       y2="128.80247"
       gradientUnits="userSpaceOnUse" /><linearGradient
       inkscape:collect="always"
       xlink:href="#linearGradient212"
       id="linearGradient210"
       x1="-107.40428"
       y1="152.37505"
       x2="-107.40428"
       y2="128.80235"
       gradientUnits="userSpaceOnUse" /><linearGradient
       inkscape:collect="always"
       xlink:href="#linearGradient93"
       id="linearGradient213"
       gradientUnits="userSpaceOnUse"
       x1="-136.62732"
       y1="137.136"
       x2="-136.9489"
       y2="84.751167" /><linearGradient
       inkscape:collect="always"
       xlink:href="#linearGradient93"
       id="linearGradient214"
       gradientUnits="userSpaceOnUse"
       x1="-136.62732"
       y1="137.136"
       x2="-136.9489"
       y2="84.751167" /><linearGradient
       inkscape:collect="always"
       xlink:href="#linearGradient93"
       id="linearGradient215"
       gradientUnits="userSpaceOnUse"
       x1="-136.62732"
       y1="137.136"
       x2="-136.9489"
       y2="84.751167" /><linearGradient
       inkscape:collect="always"
       xlink:href="#linearGradient93"
       id="linearGradient216"
       gradientUnits="userSpaceOnUse"
       x1="-136.62732"
       y1="137.136"
       x2="-136.9489"
       y2="84.751167" /><linearGradient
       inkscape:collect="always"
       xlink:href="#linearGradient93"
       id="linearGradient217"
       gradientUnits="userSpaceOnUse"
       x1="-136.62732"
       y1="137.136"
       x2="-136.9489"
       y2="84.751167" /><linearGradient
       inkscape:collect="always"
       xlink:href="#linearGradient93"
       id="linearGradient218"
       gradientUnits="userSpaceOnUse"
       x1="-136.62732"
       y1="137.136"
       x2="-136.9489"
       y2="84.751167" /><linearGradient
       inkscape:collect="always"
       xlink:href="#linearGradient93"
       id="linearGradient219"
       gradientUnits="userSpaceOnUse"
       x1="-136.62732"
       y1="137.136"
       x2="-136.9489"
       y2="84.751167" /><linearGradient
       inkscape:collect="always"
       xlink:href="#linearGradient93"
       id="linearGradient220"
       gradientUnits="userSpaceOnUse"
       x1="-136.62732"
       y1="137.136"
       x2="-136.9489"
       y2="84.751167" /><linearGradient
       inkscape:collect="always"
       xlink:href="#linearGradient93"
       id="linearGradient221"
       gradientUnits="userSpaceOnUse"
       x1="-136.62732"
       y1="137.136"
       x2="-136.9489"
       y2="84.751167" /><linearGradient
       inkscape:collect="always"
       xlink:href="#linearGradient93"
       id="linearGradient222"
       gradientUnits="userSpaceOnUse"
       x1="-136.62732"
       y1="137.136"
       x2="-136.9489"
       y2="84.751167" /><linearGradient
       inkscape:collect="always"
       xlink:href="#linearGradient93"
       id="linearGradient223"
       gradientUnits="userSpaceOnUse"
       x1="-136.62732"
       y1="137.136"
       x2="-136.9489"
       y2="84.751167" /><linearGradient
       inkscape:collect="always"
       xlink:href="#linearGradient93"
       id="linearGradient224"
       gradientUnits="userSpaceOnUse"
       x1="-136.62732"
       y1="137.136"
       x2="-136.9489"
       y2="84.751167" /><linearGradient
       inkscape:collect="always"
       xlink:href="#linearGradient93"
       id="linearGradient225"
       gradientUnits="userSpaceOnUse"
       x1="-136.62732"
       y1="137.136"
       x2="-136.9489"
       y2="84.751167" /><linearGradient
       inkscape:collect="always"
       xlink:href="#linearGradient93"
       id="linearGradient226"
       gradientUnits="userSpaceOnUse"
       x1="-136.62732"
       y1="137.136"
       x2="-136.9489"
       y2="84.751167" /><linearGradient
       inkscape:collect="always"
       xlink:href="#linearGradient93"
       id="linearGradient227"
       gradientUnits="userSpaceOnUse"
       x1="-136.62732"
       y1="137.136"
       x2="-136.9489"
       y2="84.751167" /><linearGradient
       inkscape:collect="always"
       xlink:href="#linearGradient93"
       id="linearGradient228"
       gradientUnits="userSpaceOnUse"
       x1="-136.62732"
       y1="137.136"
       x2="-136.9489"
       y2="84.751167" /><linearGradient
       inkscape:collect="always"
       xlink:href="#linearGradient93"
       id="linearGradient229"
       gradientUnits="userSpaceOnUse"
       x1="-136.62732"
       y1="137.136"
       x2="-136.9489"
       y2="84.751167" /><linearGradient
       inkscape:collect="always"
       xlink:href="#linearGradient93"
       id="linearGradient230"
       gradientUnits="userSpaceOnUse"
       x1="-136.62732"
       y1="137.136"
       x2="-136.9489"
       y2="84.751167" /><linearGradient
       inkscape:collect="always"
       xlink:href="#linearGradient93"
       id="linearGradient231"
       gradientUnits="userSpaceOnUse"
       x1="-136.62732"
       y1="137.136"
       x2="-136.9489"
       y2="84.751167" /><linearGradient
       inkscape:collect="always"
       xlink:href="#linearGradient212"
       id="linearGradient232"
       gradientUnits="userSpaceOnUse"
       x1="-107.40428"
       y1="152.37505"
       x2="-107.40428"
       y2="128.80235" /><linearGradient
       inkscape:collect="always"
       xlink:href="#linearGradient212"
       id="linearGradient233"
       gradientUnits="userSpaceOnUse"
       x1="-107.40428"
       y1="152.37505"
       x2="-107.40428"
       y2="128.80235" /><linearGradient
       inkscape:collect="always"
       xlink:href="#linearGradient208"
       id="linearGradient234"
       gradientUnits="userSpaceOnUse"
       x1="-162.04274"
       y1="152.68774"
       x2="-162.07605"
       y2="128.80247" /><linearGradient
       inkscape:collect="always"
       xlink:href="#linearGradient208"
       id="linearGradient235"
       gradientUnits="userSpaceOnUse"
       x1="-162.04274"
       y1="152.68774"
       x2="-162.07605"
       y2="128.80247" /><linearGradient
       inkscape:collect="always"
       xlink:href="#linearGradient208"
       id="linearGradient236"
       gradientUnits="userSpaceOnUse"
       x1="-162.04274"
       y1="152.68774"
       x2="-162.07605"
       y2="128.80247" /></defs><g
     inkscape:label="Layer 1"
     inkscape:groupmode="layer"
     id="layer1"
     style="display:inline"><rect
       style="fill:#f0f8ff;fill-opacity:1;stroke:#ffffff;stroke-width:0;stroke-linecap:square;stroke-dasharray:none;stroke-opacity:1;paint-order:markers stroke fill"
       id="rect236"
       width="512"
       height="512"
       x="0"
       y="0"
       rx="0"
       ry="0"
       inkscape:label="flag" /><g
       id="g93"
       style="fill:url(#linearGradient94);fill-opacity:1"
       transform="matrix(3.5295494,0,0,3.5295494,738.18792,-226.12983)"><path
         style="fill:url(#linearGradient213);fill-opacity:1;stroke-width:0;stroke-linecap:square;paint-order:markers stroke fill"
         d="m -159.27247,109.59888 11.66682,-9.988791 2.64396,2.850831 -7.9282,7.13796 7.9282,7.1082 -2.64396,2.6355 z"
         id="path9"
         inkscape:label="chevron left" /><path
         style="fill:url(#linearGradient214);fill-opacity:1;stroke-width:0;stroke-linecap:square;paint-order:markers stroke fill"
         d="m -114.40232,109.35378 -11.66682,9.9888 -2.64396,-2.85084 7.9282,-7.13796 -7.9282,-7.1082 2.64396,-2.635496 z"
         id="path10"
         inkscape:label="chevron right" /><path
         style="fill:url(#linearGradient215);fill-opacity:1;stroke-width:0;stroke-linecap:square;paint-order:markers stroke fill"
         d="m -145.22524,123.56041 h 4.76973 l 12.35824,-29.906179 h -4.90546 z"
         id="path15"
         inkscape:label="chevron bar" /><g
         id="g53"
         transform="matrix(-1,0,0,1,-273.80743,4.5508283e-7)"
         style="fill:url(#linearGradient219);fill-opacity:1"><path
           style="fill:url(#linearGradient216);fill-opacity:1;stroke-width:0;stroke-linecap:square;paint-order:markers stroke fill"
           d="m -171.55645,105.02304 h 14.15211 l 0.78548,-0.98392 -14.92953,7.9e-4 z"
           id="path47" /><path
           style="fill:url(#linearGradient217);fill-opacity:1;stroke-width:0;stroke-linecap:square;paint-order:markers stroke fill"
           d="m -178.63178,110.72195 13.54942,-5.3e-4 13.47038,12.11984 v 0.71917 h 2.69291 l -15.6371,-13.96153 -14.09628,-5.3e-4 z"
           id="path48" /><path
           style="fill:url(#linearGradient218);fill-opacity:1;stroke-width:0;stroke-linecap:square;paint-order:markers stroke fill"
           d="m -151.39908,122.84122 -3.66329,3e-5 -9.70276,-8.7831 c -8.71931,1.95964 -19.31758,1.93016 -28.72796,7.26885 -0.41651,0.23629 -0.83815,0.77299 -0.82683,1.51425 l 0.13041,8.54176 h 0.1385 l 1.3263,-8.54176 c 0.0544,-0.62031 0.31715,-0.7483 0.626,-0.86528 l 25.16342,-5.93539 8.3923,7.51985 h 7.14151 z"
           id="path49"
           sodipodi:nodetypes="cccsscccccccc" /></g><g
         id="g47"
         style="fill:url(#linearGradient223);fill-opacity:1"><path
           style="display:inline;fill:url(#linearGradient220);fill-opacity:1;stroke-width:0;stroke-linecap:square;paint-order:markers stroke fill"
           d="m -171.55645,105.02304 h 14.15211 l 0.78548,-0.98392 -14.92953,7.9e-4 z"
           id="path36" /><path
           style="display:inline;fill:url(#linearGradient221);fill-opacity:1;stroke-width:0;stroke-linecap:square;paint-order:markers stroke fill"
           d="m -178.63178,110.72195 13.54942,-5.3e-4 13.47038,12.11984 v 0.71917 h 2.69291 l -15.6371,-13.96153 -14.09628,-5.3e-4 z"
           id="path37" /><path
           style="display:inline;fill:url(#linearGradient222);fill-opacity:1;stroke-width:0;stroke-linecap:square;paint-order:markers stroke fill"
           d="m -151.31139,122.84193 -3.74271,-0.006 -9.70276,-8.7831 c -8.71931,1.95964 -19.32585,1.93533 -28.73623,7.27402 -0.41651,0.23629 -0.8498,0.77326 -0.82683,1.51425 l 0.38861,12.53446 h 0.15297 l 1.0619,-12.53963 c 0.0544,-0.62031 0.31715,-0.7483 0.626,-0.86528 l 25.16342,-5.93539 8.3923,7.51985 h 7.21752 z"
           id="path38"
           sodipodi:nodetypes="cccsscccccccc" /></g><circle
         style="fill:url(#linearGradient224);fill-opacity:1;stroke-width:0;stroke-linecap:square;paint-order:markers stroke fill"
         id="circle51"
         cx="-181.91757"
         cy="110.22047"
         r="3.3238387"
         transform="matrix(-0.66749565,0,0,0.66749565,-221.5689,30.959399)" /><circle
         style="display:inline;fill:url(#linearGradient225);fill-opacity:1;stroke-width:0;stroke-linecap:square;paint-order:markers stroke fill"
         id="circle52"
         cx="-181.91757"
         cy="110.22047"
         r="3.3238387"
         transform="matrix(-0.99999998,0,0,0.99999998,-273.80742,5.7667266e-7)" /><circle
         style="fill:url(#linearGradient226);fill-opacity:1;stroke-width:0;stroke-linecap:square;paint-order:markers stroke fill"
         id="circle46"
         cx="-181.91757"
         cy="110.22047"
         r="3.3238387"
         transform="matrix(0.66749565,0,0,0.66749565,-52.238524,30.959396)" /><circle
         style="fill:url(#linearGradient227);fill-opacity:1;stroke-width:0;stroke-linecap:square;paint-order:markers stroke fill"
         id="path35"
         cx="-181.91757"
         cy="110.22047"
         r="3.3238387" /><g
         id="g46"
         transform="matrix(0.66749565,0,0,0.66749565,-52.238524,30.959396)"
         inkscape:label="mirror left"
         style="fill:url(#linearGradient228);fill-opacity:1" /><g
         id="g45"
         inkscape:label="handle ball left"
         style="fill:url(#linearGradient229);fill-opacity:1" /><g
         id="g51"
         transform="matrix(-0.66749565,0,0,0.66749565,-221.5689,30.959399)"
         inkscape:label="mirror right"
         style="fill:url(#linearGradient230);fill-opacity:1" /><g
         id="g52"
         style="display:inline;fill:url(#linearGradient231);fill-opacity:1"
         inkscape:label="handle ball right"
         transform="matrix(-1,0,0,1,-273.80742,4.5508283e-7)" /></g><path
       style="fill:#f0f8ff;fill-opacity:1;stroke-width:0;stroke-linecap:square;paint-order:markers stroke fill"
       sodipodi:type="inkscape:offset"
       inkscape:radius="-1.2531809"
       inkscape:original="M -181.91797 106.89648 A 3.3238387 3.3238387 0 0 0 -185.24219 110.2207 A 3.3238387 3.3238387 0 0 0 -181.91797 113.54492 A 3.3238387 3.3238387 0 0 0 -178.59375 110.2207 A 3.3238387 3.3238387 0 0 0 -181.91797 106.89648 z "
       xlink:href="#path35"
       id="path46"
       inkscape:href="#path35"
       d="m -181.91797,108.15039 c -1.08435,-1.2e-4 -2.07044,0.98596 -2.07031,2.07031 -1.3e-4,1.08435 0.98596,2.07044 2.07031,2.07032 1.08435,1.2e-4 2.07044,-0.98597 2.07031,-2.07032 1.3e-4,-1.08435 -0.98596,-2.07043 -2.07031,-2.07031 z"
       inkscape:label="mirror left inner"
       transform="matrix(2.3559588,0,0,2.3559588,553.80943,-116.8571)" /><path
       style="fill:#f0f8ff;fill-opacity:1;stroke-width:0;stroke-linecap:square;paint-order:markers stroke fill"
       sodipodi:type="inkscape:offset"
       inkscape:radius="-1.2531809"
       inkscape:original="M -181.91797 106.89648 A 3.3238387 3.3238387 0 0 0 -185.24219 110.2207 A 3.3238387 3.3238387 0 0 0 -181.91797 113.54492 A 3.3238387 3.3238387 0 0 0 -178.59375 110.2207 A 3.3238387 3.3238387 0 0 0 -181.91797 106.89648 z "
       xlink:href="#path35"
       id="path51"
       inkscape:href="#path35"
       d="m -181.91797,108.15039 c -1.08435,-1.2e-4 -2.07044,0.98596 -2.07031,2.07031 -1.3e-4,1.08435 0.98596,2.07044 2.07031,2.07032 1.08435,1.2e-4 2.07044,-0.98597 2.07031,-2.07032 1.3e-4,-1.08435 -0.98596,-2.07043 -2.07031,-2.07031 z"
       inkscape:label="mirror right inner"
       transform="matrix(-2.3559588,0,0,2.3559588,-43.850494,-116.85709)" /><path
       style="fill:#f0f8ff;fill-opacity:1;stroke-width:0;stroke-linecap:square;paint-order:markers stroke fill"
       sodipodi:type="inkscape:offset"
       inkscape:radius="-1.2531809"
       inkscape:original="M -181.91797 106.89648 A 3.3238387 3.3238387 0 0 0 -185.24219 110.2207 A 3.3238387 3.3238387 0 0 0 -181.91797 113.54492 A 3.3238387 3.3238387 0 0 0 -178.59375 110.2207 A 3.3238387 3.3238387 0 0 0 -181.91797 106.89648 z "
       xlink:href="#path35"
       id="path45"
       inkscape:href="#path35"
       d="m -181.91797,108.15039 c -1.08435,-1.2e-4 -2.07044,0.98596 -2.07031,2.07031 -1.3e-4,1.08435 0.98596,2.07044 2.07031,2.07032 1.08435,1.2e-4 2.07044,-0.98597 2.07031,-2.07032 1.3e-4,-1.08435 -0.98596,-2.07043 -2.07031,-2.07031 z"
       inkscape:label="handle ball left inner"
       transform="matrix(3.5295494,0,0,3.5295494,738.18792,-226.12983)" /><path
       style="display:inline;fill:#f0f8ff;fill-opacity:1;stroke-width:0;stroke-linecap:square;paint-order:markers stroke fill"
       sodipodi:type="inkscape:offset"
       inkscape:radius="-1.2531809"
       inkscape:original="M -181.91797 106.89648 A 3.3238387 3.3238387 0 0 0 -185.24219 110.2207 A 3.3238387 3.3238387 0 0 0 -181.91797 113.54492 A 3.3238387 3.3238387 0 0 0 -178.59375 110.2207 A 3.3238387 3.3238387 0 0 0 -181.91797 106.89648 z "
       xlink:href="#path35"
       id="path52"
       inkscape:href="#path35"
       d="m -181.91797,108.15039 c -1.08435,-1.2e-4 -2.07044,0.98596 -2.07031,2.07031 -1.3e-4,1.08435 0.98596,2.07044 2.07031,2.07032 1.08435,1.2e-4 2.07044,-0.98597 2.07031,-2.07032 1.3e-4,-1.08435 -0.98596,-2.07043 -2.07031,-2.07031 z"
       inkscape:label="handle ball right inner"
       transform="matrix(-3.5295494,0,0,3.5295494,-228.22893,-226.12983)" /><path
       style="fill:url(#linearGradient59);stroke-width:0;stroke-linecap:square;paint-order:markers stroke fill"
       d="m 62.826505,223.91167 c -0.400567,-8.77454 0.02824,-13.18711 1.155576,-13.9289 22.116333,-9.044 51.529169,-17.35343 84.131289,-20.45737 3.62397,-0.34518 6.19166,5.87265 9.26539,9.29483 -45.41849,9.20631 -79.891424,17.74921 -94.552255,25.09144 z"
       id="path44"
       sodipodi:nodetypes="ccscc"
       inkscape:label="eyebrow left" /><path
       style="fill:url(#linearGradient64);stroke-width:0;stroke-linecap:square;paint-order:markers stroke fill"
       d="m 447.13246,223.91167 c 0.40058,-8.77454 -0.0281,-13.18711 -1.15556,-13.9289 -22.11633,-9.044 -51.52915,-17.35343 -84.1313,-20.45737 -3.62398,-0.34518 -6.19165,5.87265 -9.26539,9.29483 45.41851,9.20631 79.89142,17.74921 94.55225,25.09144 z"
       id="path50"
       sodipodi:nodetypes="ccscc"
       inkscape:label="eyebrow right" /><path
       style="fill:url(#linearGradient66);stroke-width:0;stroke-linecap:square;paint-order:markers stroke fill"
       d="m 178.60257,209.98286 -34.70069,-31.08093 12.76853,-2.47663 37.19206,33.53879 z"
       id="path53"
       inkscape:label="handle blue left"
       sodipodi:nodetypes="ccccc" /><path
       style="fill:url(#linearGradient67);fill-opacity:1;stroke-width:0;stroke-linecap:square;paint-order:markers stroke fill"
       d="m 331.35635,209.98286 34.68134,-31.07109 -12.71997,-2.46769 -37.13871,33.53878 z"
       id="path54"
       inkscape:label="handle blue right"
       sodipodi:nodetypes="ccccc" /><path
       style="fill:url(#linearGradient148);fill-opacity:1;stroke-width:0;stroke-linecap:square;paint-order:markers stroke fill"
       d="m 51.16738,323.0656 c 15.874713,8.04946 49.68872,24.37695 203.80638,96.21854 51.30629,-28.82622 122.28164,-61.35044 199.3717,-96.21854 3.79168,-1.71499 6.91864,-5.12839 6.43828,-10.27648 -2.48202,4.4709 -2.88512,5.61857 -6.43828,6.97482 -72.15399,27.54131 -150.0828,55.02124 -199.3717,77.90963 C 186.42868,371.73746 113.06633,337.37105 51.16738,323.0656 Z"
       id="path125"
       sodipodi:nodetypes="ccscscc"
       inkscape:label="bottom gold" /><path
       style="fill:url(#linearGradient128);stroke-width:0;stroke-linecap:square;paint-order:markers stroke fill"
       d="m 74.534514,323.0656 180.439246,63.77056 177.51858,-62.40858 c 10.78981,-4.69062 21.49165,-9.39942 21.85312,-16.24023 v 0 c 0,0 -0.88488,2.59771 -7.39415,6.65611 -3.23275,2.01556 -15.62006,5.7347 -21.30323,6.51563 -71.06555,9.76512 -116.4505,7.50973 -170.67432,7.2162 -65.21956,1.7314 -125.78173,0.18703 -180.439246,-5.50969 z"
       id="path127"
       sodipodi:nodetypes="cccccsscc"
       inkscape:label="bottom blue" /><path
       style="display:inline;fill:#f0f8ff;fill-opacity:1;stroke-width:0;stroke-linecap:square;paint-order:markers stroke fill"
       d="m 204.54533,350.82055 50.42843,10.7098 c 59.47465,-11.49126 118.97442,-24.47595 177.75921,-39.11389 1.05962,-0.27248 2.78678,-1.93963 2.78678,-1.93963 -0.99858,0.1996 -1.5926,0.87733 -2.59964,1.027 l -177.94635,35.528 z"
       id="path126"
       sodipodi:nodetypes="ccssccc"
       inkscape:label="bottom white" /><g
       id="g203"
       inkscape:label="numbers"
       style="fill:url(#linearGradient210)"
       transform="matrix(3.5295494,0,0,3.5295494,738.18792,-226.12983)"><path
         id="rect182-2"
         style="fill:url(#linearGradient232);fill-opacity:1;stroke:#ffffff;stroke-width:0;stroke-linecap:square;stroke-dasharray:none;stroke-opacity:1;paint-order:markers stroke fill"
         inkscape:label="zero"
         d="m -99.772721,128.80247 c -3.050769,0 -5.506639,2.39915 -5.506639,5.379 v 12.81473 c 0,2.97985 2.45587,5.379 5.506639,5.379 h 11.752254 c 3.050764,0 5.506641,-2.39915 5.506641,-5.379 v -12.81473 c 0,-2.97985 -2.455877,-5.379 -5.506641,-5.379 z m 1.904793,3.72639 h 7.931299 c 1.233794,0 2.227254,0.99346 2.227254,2.22726 v 11.31972 c 0,1.23379 -0.99346,2.22725 -2.227254,2.22725 h -7.931299 c -1.233795,0 -2.227252,-0.99346 -2.227252,-2.22725 v -11.31972 c 0,-1.2338 0.993457,-2.22726 2.227252,-2.22726 z" /><path
         id="path194"
         style="display:inline;fill:url(#linearGradient233);stroke:#ffffff;stroke-width:0;stroke-linecap:square;paint-order:markers stroke fill"
         d="m -124.26218,128.80247 c -0.18624,0 -0.37013,0.01 -0.55139,0.0279 -0.18126,0.0183 -0.35998,0.0454 -0.53537,0.0811 -0.17538,0.0357 -0.34762,0.0795 -0.51625,0.13178 -0.15491,0.048 -0.30574,0.10518 -0.45423,0.16639 -0.0234,0.01 -0.047,0.019 -0.0703,0.0289 -0.14461,0.062 -0.28608,0.12961 -0.42375,0.20361 -0.0171,0.009 -0.0337,0.0191 -0.0506,0.0284 -0.12929,0.0713 -0.25531,0.14755 -0.37776,0.22893 -0.0149,0.01 -0.0302,0.0195 -0.045,0.0294 -0.12791,0.0869 -0.2514,0.17968 -0.37104,0.27699 -0.0216,0.0175 -0.0428,0.0354 -0.0641,0.0532 -0.23926,0.20085 -0.46059,0.42222 -0.66146,0.66146 -0.0182,0.0216 -0.0364,0.0432 -0.0543,0.0651 -0.0964,0.1186 -0.18822,0.24068 -0.2744,0.36741 -0.0118,0.0173 -0.0225,0.0353 -0.0341,0.0527 -0.0817,0.12328 -0.15892,0.25016 -0.23047,0.38034 -0.008,0.0137 -0.0154,0.0271 -0.0227,0.0408 -0.0732,0.13594 -0.14004,0.27586 -0.20154,0.41858 -0.0131,0.0303 -0.0252,0.0609 -0.0377,0.0915 -0.0591,0.14447 -0.11462,0.2908 -0.16123,0.44132 -0.0522,0.16864 -0.0961,0.34086 -0.13178,0.51625 -0.0357,0.17539 -0.0628,0.35411 -0.0811,0.53537 -0.0183,0.18126 -0.0279,0.36514 -0.0279,0.55138 v 3.72639 c 0,2.97985 2.39864,5.37843 5.37849,5.37848 3.76709,2e-5 7.85802,5e-5 11.78687,0 0.003,0 -0.0116,1.88896 0,3.3228 0.007,0.92694 -1.45865,1.67062 -3.27008,1.67328 l -13.89528,0.0207 c -6.8e-4,1.94972 -0.002,4.07211 0,4.07211 h 16.85737 c 2.97986,0 5.379,-2.39918 5.379,-5.379 v -3.70986 -9.10487 c 0,-0.18624 -0.01,-0.37012 -0.0279,-0.55138 -0.0183,-0.18126 -0.0454,-0.35998 -0.0811,-0.53537 -0.0357,-0.17539 -0.0795,-0.34761 -0.13178,-0.51625 -0.0522,-0.16863 -0.113,-0.33355 -0.18087,-0.49454 -0.40716,-0.96581 -1.08813,-1.78643 -1.94613,-2.36523 -0.28606,-0.19294 -0.59166,-0.3588 -0.91364,-0.49455 -0.32198,-0.13574 -0.66001,-0.24122 -1.01079,-0.31264 -0.17539,-0.0357 -0.35411,-0.0628 -0.53537,-0.0811 -0.18126,-0.0183 -0.36515,-0.0279 -0.55139,-0.0279 z m 2.15077,3.72639 h 7.36854 c 1.25619,0 2.27256,1.0114 2.26756,2.26756 -0.008,1.94312 0.002,4.50257 0,4.50257 h -9.6361 c -1.25619,-3e-5 -2.26756,-1.0109 -2.26756,-2.26704 v -2.23553 c 0,-1.25617 1.01137,-2.26756 2.26756,-2.26756 z"
         inkscape:label="nine" /></g><g
       id="g202"
       inkscape:label="letters"
       style="fill:url(#linearGradient204)"
       transform="matrix(3.5295494,0,0,3.5295494,738.18792,-226.12983)"><path
         style="display:inline;fill:url(#linearGradient234);fill-opacity:1;stroke:#ffffff;stroke-width:0;stroke-linecap:square;stroke-dasharray:none;stroke-opacity:1;paint-order:markers stroke fill"
         d="m -171.87602,147.96822 -0.5028,4.40697 h 13.53737 a 6.8435996,6.8435996 135 0 0 6.8436,-6.8436 v -0.20803 a 6.2547916,6.2547916 49.917945 0 0 -5.18631,-6.16286 l -7.84256,-1.3597 a 2.4616205,2.4616205 49.917945 0 1 -2.04111,-2.42544 2.3936096,2.3936096 144.17465 0 1 2.74464,-1.98134 h 10.81109 v -4.59175 h -12.29363 a 6.57309,6.57309 135 0 0 -6.57309,6.57309 v 1.00285 c 0,2.08802 1.50896,4.55345 3.4359,5.35694 0.681,0.28396 1.34751,0.53813 1.87509,0.69129 2.2291,0.64713 6.11692,1.22919 8.25949,1.52144 0.84167,0.11481 1.52524,0.88741 1.52524,1.73736 a 2.3131743,2.3131743 135.74698 0 1 -2.34314,2.28282 z"
         id="path200"
         inkscape:path-effect="#path-effect202"
         inkscape:original-d="m -171.87602,147.96822 -0.5028,4.40697 h 20.38097 v -12.31531 l -15.06998,-2.61276 v -4.0529 h 13.55573 v -4.59175 h -18.86672 v 11.35663 c 0,0 3.48639,1.73784 5.31099,2.26754 3.19188,0.92664 9.78473,1.71984 9.78473,1.71984 v 3.82179 z"
         sodipodi:nodetypes="ccccccccccsccc"
         transform="translate(21.23559)"
         inkscape:label="S2" /><path
         style="display:inline;fill:url(#linearGradient235);fill-opacity:1;stroke:#ffffff;stroke-width:0;stroke-linecap:square;stroke-dasharray:none;stroke-opacity:1;paint-order:markers stroke fill"
         d="m -171.87602,147.96822 -0.5028,4.40697 h 13.53737 a 6.8435996,6.8435996 135 0 0 6.8436,-6.8436 v -0.20803 a 6.2547916,6.2547916 49.917945 0 0 -5.18631,-6.16286 l -7.84256,-1.3597 a 2.4616205,2.4616205 49.917945 0 1 -2.04111,-2.42544 2.3936096,2.3936096 144.17465 0 1 2.74464,-1.98134 h 10.81109 v -4.59175 h -12.29363 a 6.57309,6.57309 135 0 0 -6.57309,6.57309 v 1.00285 c 0,2.08802 1.50896,4.55345 3.4359,5.35694 0.681,0.28396 1.34751,0.53813 1.87509,0.69129 2.2291,0.64713 6.11692,1.22919 8.25949,1.52144 0.84167,0.11481 1.52524,0.88741 1.52524,1.73736 a 2.3131743,2.3131743 135.74698 0 1 -2.34314,2.28282 z"
         id="path199"
         inkscape:path-effect="#path-effect200"
         inkscape:original-d="m -171.87602,147.96822 -0.5028,4.40697 h 20.38097 v -12.31531 l -15.06998,-2.61276 v -4.0529 h 13.55573 v -4.59175 h -18.86672 v 11.35663 c 0,0 3.48639,1.73784 5.31099,2.26754 3.19188,0.92664 9.78473,1.71984 9.78473,1.71984 v 3.82179 z"
         sodipodi:nodetypes="ccccccccccsccc"
         inkscape:label="S1" /><path
         style="display:inline;fill:url(#linearGradient236);fill-opacity:1;stroke:#ffffff;stroke-width:0;stroke-linecap:square;stroke-dasharray:none;stroke-opacity:1;paint-order:markers stroke fill"
         d="m -174.4748,128.47174 -5.43434,2.39779 v 14.63004 a 2.8032683,2.8032683 135 0 1 -2.80327,2.80327 h -6.70858 l -2.36885,4.07235 h 10.7467 a 6.5683419,6.5683419 135 0 0 6.56834,-6.56834 z"
         id="path197"
         inkscape:path-effect="#path-effect199"
         inkscape:original-d="m -174.4748,128.47174 -5.43434,2.39779 v 17.43331 h -9.51185 l -2.36885,4.07235 h 17.31504 z"
         inkscape:label="J" /></g></g></svg>
